<svg version="1.1" id="Layer_1" xmlns="http://www.w3.org/2000/svg" xmlns:xlink="http://www.w3.org/1999/xlink" x="0px" y="0px"
	 width="100%" viewBox="0 0 500 500" enable-background="new 0 0 500 500" xml:space="preserve">
<path fill="#000000" opacity="1.000000" stroke="none" 
	d="
M317.000000,501.000000 
	C211.333359,501.000000 106.166718,501.000000 1.000057,501.000000 
	C1.000038,334.333405 1.000038,167.666794 1.000019,1.000146 
	C167.666565,1.000097 334.333130,1.000097 500.999756,1.000049 
	C500.999847,167.666519 500.999847,334.333038 500.999939,500.999786 
	C439.833344,501.000000 378.666656,501.000000 317.000000,501.000000 
M189.122498,51.568604 
	C177.648834,59.762451 169.811020,70.658714 165.166168,83.903320 
	C125.402763,197.286667 85.623970,310.664612 45.911034,424.065674 
	C38.526478,445.152405 51.336720,462.958710 73.740326,462.992706 
	C96.397469,463.027100 119.054741,463.026581 141.711884,462.992523 
	C162.300766,462.961548 176.329102,452.971283 183.194138,433.497437 
	C203.720032,375.272247 224.317657,317.072205 244.729172,258.806915 
	C265.743530,198.820862 286.288544,138.668671 307.628571,78.799347 
	C315.557709,56.554295 299.105194,37.656181 279.056671,38.811855 
	C262.950287,39.740288 246.745270,39.172878 230.588455,38.949009 
	C215.624130,38.741669 202.023331,42.686554 189.122498,51.568604 
M297.888916,268.340942 
	C294.626862,277.572968 291.321716,286.790009 288.112823,296.040466 
	C283.235687,310.100372 281.838348,324.646942 286.505585,338.727142 
	C297.625397,372.273560 309.072144,405.737732 321.545868,438.797821 
	C327.525543,454.646179 340.887604,462.648621 357.914093,462.910126 
	C381.397797,463.270844 404.910065,462.414398 428.375031,463.169647 
	C450.709137,463.888489 463.800781,442.985291 456.572052,423.012939 
	C432.117676,355.447144 408.783936,287.475830 385.015076,219.661896 
	C376.397552,195.075790 367.767517,170.494095 359.127808,145.915787 
	C357.042908,139.984756 353.879944,137.394150 349.282776,137.874649 
	C344.413330,138.383606 342.418243,141.758286 340.940247,145.965485 
	C326.694031,186.518005 312.362946,227.040726 297.888916,268.340942 
z"/>
<path fill="#FEFEFE" opacity="1.000000" stroke="none" 
	d="
M189.410461,51.348587 
	C202.023331,42.686554 215.624130,38.741669 230.588455,38.949009 
	C246.745270,39.172878 262.950287,39.740288 279.056671,38.811855 
	C299.105194,37.656181 315.557709,56.554295 307.628571,78.799347 
	C286.288544,138.668671 265.743530,198.820862 244.729172,258.806915 
	C224.317657,317.072205 203.720032,375.272247 183.194138,433.497437 
	C176.329102,452.971283 162.300766,462.961548 141.711884,462.992523 
	C119.054741,463.026581 96.397469,463.027100 73.740326,462.992706 
	C51.336720,462.958710 38.526478,445.152405 45.911034,424.065674 
	C85.623970,310.664612 125.402763,197.286667 165.166168,83.903320 
	C169.811020,70.658714 177.648834,59.762451 189.410461,51.348587 
z"/>
<path fill="#FEFEFE" opacity="1.000000" stroke="none" 
	d="
M297.972534,267.956451 
	C312.362946,227.040726 326.694031,186.518005 340.940247,145.965485 
	C342.418243,141.758286 344.413330,138.383606 349.282776,137.874649 
	C353.879944,137.394150 357.042908,139.984756 359.127808,145.915787 
	C367.767517,170.494095 376.397552,195.075790 385.015076,219.661896 
	C408.783936,287.475830 432.117676,355.447144 456.572052,423.012939 
	C463.800781,442.985291 450.709137,463.888489 428.375031,463.169647 
	C404.910065,462.414398 381.397797,463.270844 357.914093,462.910126 
	C340.887604,462.648621 327.525543,454.646179 321.545868,438.797821 
	C309.072144,405.737732 297.625397,372.273560 286.505585,338.727142 
	C281.838348,324.646942 283.235687,310.100372 288.112823,296.040466 
	C291.321716,286.790009 294.626862,277.572968 297.972534,267.956451 
z"/>
</svg>